<?xml version="1.0" encoding="UTF-8" standalone="no"?>
<!-- Created with Inkscape (http://www.inkscape.org/) -->

<svg
   width="39.913021mm"
   height="44.678711mm"
   viewBox="0 0 39.913021 44.678711"
   version="1.1"
   id="svg1"
   xml:space="preserve"
   xmlns="http://www.w3.org/2000/svg"
   xmlns:svg="http://www.w3.org/2000/svg"><defs
     id="defs1" /><g
     id="g24"
     transform="translate(-165.70535,-113.09119)"><path
       style="fill:#000000;fill-opacity:1;fill-rule:evenodd;stroke:#00ffda;stroke-width:0.22;stroke-dasharray:none;stroke-opacity:1"
       d="M 7.3613829,113.32895 H 45.895042 c 0,0 1.259148,17.52061 -0.06816,26.12836 -0.139082,0.90196 -0.408195,1.79737 -0.817932,2.61284 -0.520977,1.03687 -1.321212,1.91019 -2.044827,2.81732 -0.652648,0.81817 -1.34787,1.60304 -2.067549,2.36292 -0.902274,0.95267 -1.825399,1.89021 -2.817319,2.74915 -1.392459,1.20578 -2.868755,2.31677 -4.385021,3.36261 -2.301052,1.58714 -7.134181,4.40774 -7.134181,4.40774 0,0 -4.909239,-2.93868 -7.225061,-4.61223 -1.662362,-1.20132 -3.250761,-2.5087 -4.771267,-3.88517 -1.496728,-1.35495 -2.981106,-2.74135 -4.27142,-4.29414 -0.7585763,-0.91289 -1.4921543,-1.86887 -2.0221083,-2.93092 -0.427727,-0.85718 -0.7553626,-1.78084 -0.9088128,-2.72644 -1.3878205,-8.55214 -1e-6,-25.99204 -1e-6,-25.99204 z"
       id="path1-2-2"
       transform="translate(159.07213,-0.12776916)" /><path
       style="fill:#000000;fill-opacity:1;fill-rule:evenodd;stroke:#00ffda;stroke-width:0.22;stroke-dasharray:none;stroke-opacity:1"
       d="m 168.81976,115.14438 h 33.80665 c 0,0 1.1047,15.373 -0.0598,22.92567 -0.12202,0.7914 -0.35811,1.57704 -0.71759,2.29257 -0.45707,0.90976 -1.15914,1.67604 -1.79399,2.47199 -0.57258,0.71788 -1.18252,1.40654 -1.81391,2.07328 -0.79159,0.83589 -1.60147,1.65852 -2.47172,2.41218 -1.22163,1.05797 -2.51683,2.03278 -3.8471,2.95043 -2.01877,1.39259 -6.25901,3.86746 -6.25901,3.86746 0,0 -4.30703,-2.57849 -6.33875,-4.04689 -1.45845,-1.05407 -2.852,-2.20119 -4.18597,-3.40893 -1.31313,-1.18887 -2.61542,-2.40535 -3.74743,-3.76779 -0.66553,-0.801 -1.30912,-1.6398 -1.77406,-2.57166 -0.37526,-0.75212 -0.6627,-1.56256 -0.79732,-2.39225 -1.21759,-7.50388 0,-22.80606 0,-22.80606 z"
       id="path1-4-4-1" /><ellipse
       style="fill:none;fill-rule:evenodd;stroke:#00ffda;stroke-width:0.292;stroke-dasharray:none;stroke-opacity:1"
       id="path20"
       cx="179.8885"
       cy="126.49539"
       rx="6.2598333"
       ry="2.5560358" /><ellipse
       style="fill:none;fill-rule:evenodd;stroke:#00ffda;stroke-width:0.292;stroke-dasharray:none;stroke-opacity:1"
       id="path20-6"
       cx="179.89307"
       cy="126.53506"
       rx="5.2992554"
       ry="1.9409907" /><path
       style="fill:none;fill-rule:evenodd;stroke:#00ffda;stroke-width:0.291999;stroke-linecap:round;stroke-dasharray:none;stroke-opacity:1"
       d="m 173.62867,126.49539 0.0741,1.68248 c 1.49992,1.72232 4.28515,1.93051 6.23076,1.91867 2.45758,0.0417 4.97954,-0.53014 6.23673,-1.93122"
       id="path21" /><path
       style="fill:none;fill-rule:evenodd;stroke:#00ffda;stroke-width:0.291999;stroke-dasharray:none;stroke-opacity:1"
       d="m 186.14833,126.49539 0.022,1.66993"
       id="path22" /><ellipse
       style="fill:none;fill-rule:evenodd;stroke:#00ffda;stroke-width:0.292;stroke-dasharray:none;stroke-opacity:1"
       id="path20-7"
       cx="184.99957"
       cy="142.931"
       rx="6.2598333"
       ry="2.5560358" /><ellipse
       style="fill:none;fill-rule:evenodd;stroke:#00ffda;stroke-width:0.292;stroke-dasharray:none;stroke-opacity:1"
       id="path20-6-2"
       cx="185.00414"
       cy="142.97066"
       rx="5.2992554"
       ry="1.9409907" /><path
       style="fill:none;fill-rule:evenodd;stroke:#00ffda;stroke-width:0.291999;stroke-linecap:round;stroke-dasharray:none;stroke-opacity:1"
       d="m 178.73975,142.9313 0.0741,1.68248 c 1.49992,1.72232 4.28515,1.93051 6.23076,1.91867 2.45758,0.0417 4.97954,-0.53014 6.23673,-1.93122"
       id="path21-6" /><path
       style="fill:none;fill-rule:evenodd;stroke:#00ffda;stroke-width:0.291999;stroke-dasharray:none;stroke-opacity:1"
       d="m 191.25941,142.9313 0.022,1.66993"
       id="path22-0" /><path
       style="fill:none;fill-rule:evenodd;stroke:#00ffda;stroke-width:0.291999;stroke-linecap:round;stroke-dasharray:none;stroke-opacity:1"
       d="m 173.70277,128.17787 0.0741,1.68248 c 1.49992,1.72232 4.28515,1.93051 6.23076,1.91867 2.45758,0.0417 4.97954,-0.53014 6.23673,-1.93122"
       id="path21-7" /><path
       style="fill:none;fill-rule:evenodd;stroke:#00ffda;stroke-width:0.291999;stroke-dasharray:none;stroke-opacity:1"
       d="m 186.22243,128.17787 0.022,1.66993"
       id="path22-9" /><path
       style="fill:none;fill-rule:evenodd;stroke:#00ffda;stroke-width:0.291999;stroke-linecap:round;stroke-dasharray:none;stroke-opacity:1"
       d="m 173.77687,129.86035 -0.0882,8.64104 c 1.49992,1.72232 4.28515,1.93051 6.23076,1.91867 2.45758,0.0417 4.97954,-0.53014 6.23673,-1.93122"
       id="path21-7-9" /><path
       style="fill:none;fill-rule:evenodd;stroke:#00ffda;stroke-width:0.291999;stroke-dasharray:none;stroke-opacity:1"
       d="m 186.24436,129.8478 -0.0881,8.64104"
       id="path22-9-8" /><path
       style="fill:none;fill-rule:evenodd;stroke:#00ffda;stroke-width:0.291999;stroke-linecap:round;stroke-dasharray:none;stroke-opacity:1"
       d="m 173.77687,133.25884 c 1.49992,1.72232 4.28515,1.93051 6.23076,1.91867 2.45758,0.0417 4.97954,-0.53014 6.23673,-1.93122"
       id="path21-2" /><path
       style="fill:none;fill-rule:evenodd;stroke:#00ffda;stroke-width:0.291999;stroke-linecap:round;stroke-dasharray:none;stroke-opacity:1"
       d="m 173.73277,134.18087 c 1.49992,1.72232 4.28515,1.93051 6.23076,1.91867 2.45759,0.0417 4.97955,-0.53014 6.23673,-1.93122"
       id="path21-2-8" /><path
       style="fill:none;fill-rule:evenodd;stroke:#00ffda;stroke-width:0.291999;stroke-linecap:round;stroke-dasharray:none;stroke-opacity:1"
       d="m 173.71292,136.13288 c 1.49992,1.72232 4.28515,1.93051 6.23076,1.91867 2.45758,0.0417 4.97954,-0.53014 6.23673,-1.93122"
       id="path21-2-86" /><path
       style="fill:none;fill-rule:evenodd;stroke:#00ffda;stroke-width:0.291999;stroke-linecap:round;stroke-dasharray:none;stroke-opacity:1"
       d="m 173.68868,135.16847 c 1.49992,1.72232 4.28515,1.93051 6.23076,1.91867 2.45758,0.0417 4.97954,-0.53014 6.23673,-1.93122"
       id="path21-2-06" /><path
       style="fill:none;fill-rule:evenodd;stroke:#00ffda;stroke-width:0.291999;stroke-linecap:round;stroke-dasharray:none;stroke-opacity:1"
       d="m 173.77687,131.03346 c 1.49992,1.72232 4.28515,1.93051 6.23076,1.91867 2.45759,0.0417 4.97955,-0.53014 6.23673,-1.93122"
       id="path21-2-8-9" /><path
       style="fill:none;fill-rule:evenodd;stroke:#00ffda;stroke-width:0.291999;stroke-linecap:round;stroke-dasharray:none;stroke-opacity:1"
       d="m 173.73278,132.02106 c 1.49992,1.72232 4.28515,1.93051 6.23076,1.91867 2.45758,0.0417 4.97954,-0.53014 6.23673,-1.93122"
       id="path21-2-06-3" /><path
       style="fill:none;fill-rule:evenodd;stroke:#00ffda;stroke-width:0.291999;stroke-linecap:round;stroke-dasharray:none;stroke-opacity:1"
       d="m 173.70399,137.00894 c 1.49992,1.72232 4.28515,1.93051 6.23076,1.91867 2.45758,0.0417 4.97954,-0.53014 6.23673,-1.93122"
       id="path21-2-0" /><ellipse
       style="fill:none;fill-rule:evenodd;stroke:#00ffda;stroke-width:0.292;stroke-dasharray:none;stroke-opacity:1"
       id="path20-9"
       cx="193.78737"
       cy="134.17409"
       rx="6.2598333"
       ry="2.5560358" /><ellipse
       style="fill:none;fill-rule:evenodd;stroke:#00ffda;stroke-width:0.292;stroke-dasharray:none;stroke-opacity:1"
       id="path20-6-1"
       cx="193.79193"
       cy="134.21375"
       rx="5.2992554"
       ry="1.9409907" /><path
       style="fill:none;fill-rule:evenodd;stroke:#00ffda;stroke-width:0.291999;stroke-linecap:round;stroke-dasharray:none;stroke-opacity:1"
       d="m 187.52753,134.17408 0.0741,1.68248 c 1.49992,1.72232 4.28515,1.93051 6.23076,1.91867 2.45758,0.0417 4.97954,-0.53014 6.23673,-1.93122"
       id="path21-3" /><path
       style="fill:none;fill-rule:evenodd;stroke:#00ffda;stroke-width:0.291999;stroke-dasharray:none;stroke-opacity:1"
       d="m 200.04719,134.17408 0.022,1.66993"
       id="path22-5" /><path
       style="fill:none;fill-rule:evenodd;stroke:#00ffda;stroke-width:0.291999;stroke-linecap:round;stroke-dasharray:none;stroke-opacity:1"
       d="m 187.60163,135.85656 0.0741,1.68248 c 1.49992,1.72232 4.28515,1.93051 6.23076,1.91867 2.45758,0.0417 4.97954,-0.53014 6.23673,-1.93122"
       id="path21-7-98" /><path
       style="fill:none;fill-rule:evenodd;stroke:#00ffda;stroke-width:0.291999;stroke-dasharray:none;stroke-opacity:1"
       d="m 200.12129,135.85656 0.022,1.66993"
       id="path22-9-4" /><path
       style="fill:none;fill-rule:evenodd;stroke:#00ffda;stroke-width:0.291999;stroke-linecap:round;stroke-dasharray:none;stroke-opacity:1"
       d="m 187.67573,138.71215 c 1.49992,1.72232 4.28515,1.93051 6.23076,1.91867 2.45759,0.0417 4.97955,-0.53014 6.23673,-1.93122"
       id="path21-2-8-9-5" /><path
       style="fill:none;fill-rule:evenodd;stroke:#00ffda;stroke-width:0.291999;stroke-linecap:round;stroke-dasharray:none;stroke-opacity:1"
       d="m 187.63164,139.69975 c 1.49992,1.72232 4.28515,1.93051 6.23076,1.91867 2.45758,0.0417 4.97954,-0.53014 6.23673,-1.93122"
       id="path21-2-06-3-4" /><path
       style="fill:none;fill-rule:evenodd;stroke:#00ffda;stroke-width:0.291999;stroke-linecap:round;stroke-dasharray:none;stroke-opacity:1"
       d="m 173.69617,137.7755 c 1.49992,1.72232 4.28515,1.93051 6.23076,1.91867 2.45758,0.0417 4.97954,-0.53014 6.23673,-1.93122"
       id="path21-2-9" /><path
       style="fill:none;fill-rule:evenodd;stroke:#00ffda;stroke-width:0.291999;stroke-linecap:round;stroke-dasharray:none;stroke-opacity:1"
       d="m 173.75195,129.2946 c 1.49992,1.72232 4.51665,1.8077 6.29122,1.90111 1.99711,-0.0635 4.84798,-0.4512 6.10517,-1.85228"
       id="path21-2-7" /><path
       style="fill:none;fill-rule:evenodd;stroke:#00ffda;stroke-width:0.291999;stroke-linecap:round;stroke-dasharray:none;stroke-opacity:1"
       d="m 187.67573,137.53904 -0.0441,2.16071"
       id="path23" /><path
       style="fill:none;fill-rule:evenodd;stroke:#00ffda;stroke-width:0.291999;stroke-linecap:round;stroke-dasharray:none;stroke-opacity:1"
       d="m 200.14329,137.52649 -0.0442,2.16071"
       id="path24" /></g></svg>
