<?xml version="1.0" encoding="UTF-8" standalone="no"?>
<!-- Created with Inkscape (http://www.inkscape.org/) -->

<svg
   width="39.913021mm"
   height="44.678715mm"
   viewBox="0 0 39.913021 44.678715"
   version="1.1"
   id="svg1"
   xml:space="preserve"
   xmlns="http://www.w3.org/2000/svg"
   xmlns:svg="http://www.w3.org/2000/svg"><defs
     id="defs1" /><g
     id="g56"
     transform="translate(-216.72742,-112.6466)"><path
       style="fill:#000000;fill-opacity:1;fill-rule:evenodd;stroke:#00ffda;stroke-width:0.22;stroke-dasharray:none;stroke-opacity:1"
       d="M 7.3613829,113.32895 H 45.895042 c 0,0 1.259148,17.52061 -0.06816,26.12836 -0.139082,0.90196 -0.408195,1.79737 -0.817932,2.61284 -0.520977,1.03687 -1.321212,1.91019 -2.044827,2.81732 -0.652648,0.81817 -1.34787,1.60304 -2.067549,2.36292 -0.902274,0.95267 -1.825399,1.89021 -2.817319,2.74915 -1.392459,1.20578 -2.868755,2.31677 -4.385021,3.36261 -2.301052,1.58714 -7.134181,4.40774 -7.134181,4.40774 0,0 -4.909239,-2.93868 -7.225061,-4.61223 -1.662362,-1.20132 -3.250761,-2.5087 -4.771267,-3.88517 -1.496728,-1.35495 -2.981106,-2.74135 -4.27142,-4.29414 -0.7585763,-0.91289 -1.4921543,-1.86887 -2.0221083,-2.93092 -0.427727,-0.85718 -0.7553626,-1.78084 -0.9088128,-2.72644 -1.3878205,-8.55214 -1e-6,-25.99204 -1e-6,-25.99204 z"
       id="path1-2-2-4"
       transform="translate(210.0942,-0.5723572)" /><path
       style="fill:#000000;fill-opacity:1;fill-rule:evenodd;stroke:#00ffda;stroke-width:0.22;stroke-dasharray:none;stroke-opacity:1"
       d="m 219.84183,114.6998 h 33.80665 c 0,0 1.1047,15.373 -0.0598,22.92567 -0.12202,0.7914 -0.35811,1.57704 -0.71759,2.29257 -0.45707,0.90976 -1.15914,1.67604 -1.79399,2.47199 -0.57258,0.71788 -1.18252,1.40654 -1.81391,2.07328 -0.79159,0.83589 -1.60147,1.65852 -2.47172,2.41218 -1.22163,1.05797 -2.51683,2.03278 -3.8471,2.95043 -2.01877,1.39259 -6.25901,3.86746 -6.25901,3.86746 0,0 -4.30703,-2.57849 -6.33875,-4.04689 -1.45845,-1.05407 -2.852,-2.20119 -4.18597,-3.40893 -1.31313,-1.18887 -2.61542,-2.40535 -3.74743,-3.76779 -0.66553,-0.801 -1.30912,-1.6398 -1.77406,-2.57166 -0.37526,-0.75212 -0.6627,-1.56256 -0.79732,-2.39225 -1.21759,-7.50388 0,-22.80606 0,-22.80606 z"
       id="path1-4-4-1-1" /><path
       style="fill:none;fill-rule:evenodd;stroke:#00ffda;stroke-width:0.291999;stroke-linecap:round;stroke-dasharray:none;stroke-opacity:1"
       d="m 227.76401,119.30245 c 1.46228,1.03277 1.68656,1.64022 1.73664,3.68379 l -0.2105,15.84034 -2.99966,-0.0399 c -0.36111,2.1247 -0.071,3.42247 1.59364,4.14521 l 17.50948,0.0521 c 2.45205,-0.20796 2.69589,-0.96656 2.73654,-3.36804 h -1.73665 l -0.2105,-17.94537 c -0.58126,-1.53532 -0.75523,-1.78262 -2.94704,-2.78916 z"
       id="path25" /><path
       style="fill:none;fill-rule:evenodd;stroke:#00ffda;stroke-width:0.291999;stroke-linecap:round;stroke-dasharray:none;stroke-opacity:1"
       d="m 229.29015,138.82658 14.60363,-0.0526"
       id="path26" /><path
       style="fill:none;fill-rule:evenodd;stroke:#00ffda;stroke-width:0.291999;stroke-linecap:round;stroke-dasharray:none;stroke-opacity:1"
       d="m 245.91912,142.92602 c -1.40454,0.0554 -2.40249,-2.60837 -2.02534,-4.15204"
       id="path27" /><path
       style="fill:none;fill-rule:evenodd;stroke:#00ffda;stroke-width:0.291999;stroke-linecap:round;stroke-dasharray:none;stroke-opacity:1"
       d="m 227.76401,119.30245 -0.82708,0.0309"
       id="path30" /><path
       style="fill:none;fill-rule:evenodd;stroke:#00ffda;stroke-width:0.291999;stroke-linecap:round;stroke-dasharray:none;stroke-opacity:1"
       d="m 226.93693,119.33335 c -0.614,0.13025 -1.15048,0.97683 -1.24661,1.86061 l 0.0372,1.26521 3.75443,0.006"
       id="path40" /><path
       style="fill:#000000;fill-opacity:1;fill-rule:evenodd;stroke:#00ffda;stroke-width:0.291999;stroke-linecap:round;stroke-dasharray:none;stroke-opacity:1"
       d="m 237.4028,131.90171 c -1.46131,1.50068 -3.28916,2.38608 -5.09805,3.38629 l -0.85587,1.74897 -0.51883,1.7837 -1.6399,0.006 1.26564,-2.16173 0.9303,-2.04666 c -0.6203,-1.79406 -0.35273,-3.11909 0.33491,-4.80035 0.49733,-1.21597 1.23662,-2.30722 1.78617,-3.49792 l 0.0372,1.93502 0.44654,0.66982 0.22327,-1.228 -0.0372,-2.00945 1.30242,-1.93502 c 0.54043,-0.80292 1.41159,-1.32008 2.15829,-1.93502 v 2.04666 l 0.5954,-1.37685 0.0744,-1.52569 c 0,0 2.24217,-1.48352 3.4588,-2.0427 1.26265,-0.58033 3.94641,-1.34368 3.94641,-1.34368 -1.43424,1.62742 -2.58781,3.50042 -3.46071,5.61901 l -1.41406,0.55818 1.07915,-0.11164 c -0.70952,1.82552 -1.66463,3.68612 -2.86532,5.5818 l -3.08859,1.33963 0.78145,0.18606 1.5629,-0.59539 -1.00472,1.74896"
       id="path54" /><path
       style="fill:#000000;fill-opacity:1;fill-rule:evenodd;stroke:#00ffda;stroke-width:0.291999;stroke-linecap:round;stroke-dasharray:none;stroke-opacity:1"
       d="m 231.48609,134.61828 c 3.93215,-7.19122 7.37147,-11.80775 13.71007,-16.8618"
       id="path55" /><path
       style="fill:#000000;fill-opacity:1;fill-rule:evenodd;stroke:#00ffda;stroke-width:0.291999;stroke-linecap:round;stroke-dasharray:none;stroke-opacity:1"
       d="m 232.30475,135.288 c 3.93215,-7.19122 7.16935,-12.65885 13.50795,-17.7129"
       id="path55-4" /></g></svg>
