<?xml version="1.0" encoding="UTF-8" standalone="no"?>
<!-- Created with Inkscape (http://www.inkscape.org/) -->

<svg
   width="39.913021mm"
   height="44.678711mm"
   viewBox="0 0 39.913021 44.678711"
   version="1.1"
   id="svg1"
   xml:space="preserve"
   xmlns="http://www.w3.org/2000/svg"
   xmlns:svg="http://www.w3.org/2000/svg"><defs
     id="defs1" /><g
     id="g19"
     transform="translate(-115.1009,-113.57405)"><path
       style="fill:#000000;fill-opacity:1;fill-rule:evenodd;stroke:#00ffda;stroke-width:0.22;stroke-dasharray:none;stroke-opacity:1"
       d="M 7.3613829,113.32895 H 45.895042 c 0,0 1.259148,17.52061 -0.06816,26.12836 -0.139082,0.90196 -0.408195,1.79737 -0.817932,2.61284 -0.520977,1.03687 -1.321212,1.91019 -2.044827,2.81732 -0.652648,0.81817 -1.34787,1.60304 -2.067549,2.36292 -0.902274,0.95267 -1.825399,1.89021 -2.817319,2.74915 -1.392459,1.20578 -2.868755,2.31677 -4.385021,3.36261 -2.301052,1.58714 -7.134181,4.40774 -7.134181,4.40774 0,0 -4.909239,-2.93868 -7.225061,-4.61223 -1.662362,-1.20132 -3.250761,-2.5087 -4.771267,-3.88517 -1.496728,-1.35495 -2.981106,-2.74135 -4.27142,-4.29414 -0.7585763,-0.91289 -1.4921543,-1.86887 -2.0221083,-2.93092 -0.427727,-0.85718 -0.7553626,-1.78084 -0.9088128,-2.72644 -1.3878205,-8.55214 -1e-6,-25.99204 -1e-6,-25.99204 z"
       id="path1-2"
       transform="translate(108.46769,0.35509049)" /><path
       style="fill:#000000;fill-opacity:1;fill-rule:evenodd;stroke:#00ffda;stroke-width:0.22;stroke-dasharray:none;stroke-opacity:1"
       d="m 118.21532,115.62724 h 33.80665 c 0,0 1.1047,15.373 -0.0598,22.92567 -0.12202,0.7914 -0.35811,1.57704 -0.71759,2.29257 -0.45707,0.90976 -1.15914,1.67604 -1.79399,2.47199 -0.57258,0.71788 -1.18252,1.40654 -1.81391,2.07328 -0.79159,0.83589 -1.60147,1.65852 -2.47172,2.41218 -1.22163,1.05797 -2.51683,2.03278 -3.8471,2.95043 -2.01877,1.39259 -6.25901,3.86746 -6.25901,3.86746 0,0 -4.30703,-2.57849 -6.33875,-4.04689 -1.45845,-1.05407 -2.852,-2.20119 -4.18597,-3.40893 -1.31313,-1.18887 -2.61542,-2.40535 -3.74743,-3.76779 -0.66553,-0.801 -1.30912,-1.6398 -1.77406,-2.57166 -0.37526,-0.75212 -0.6627,-1.56256 -0.79732,-2.39225 -1.21759,-7.50388 0,-22.80606 0,-22.80606 z"
       id="path1-4-4" /><path
       style="fill:none;fill-rule:evenodd;stroke:#00ffda;stroke-width:0.650935;stroke-dasharray:none;stroke-opacity:1"
       d="m 127.45843,147.40701 1.70478,-18.00209 -1.95843,-2.21593 0.01,-4.04423 3.3923,0.0898 0.0206,1.8407 2.50423,-0.0242 0.0549,-1.86492 3.94935,0.0756 0.0135,1.73433 2.52842,0.0621 0.0584,-1.91338 3.42652,0.0621 -0.11683,3.87167 -2.09298,2.1988 1.85504,18.09767 z"
       id="path16" /><path
       style="fill:none;fill-rule:evenodd;stroke:#00ffda;stroke-width:0.650935;stroke-dasharray:none;stroke-opacity:1"
       d="m 133.12815,147.39522 0.0825,-4.38188 c -0.0551,-0.80716 0.85726,-2.12231 2.04468,-2.15103 1.22614,-0.0297 1.98983,0.91118 2.00338,1.96489 l -0.0403,4.55951 z"
       id="path17" /><path
       style="fill:none;fill-rule:evenodd;stroke:#00ffda;stroke-width:0.650935;stroke-dasharray:none;stroke-opacity:1"
       d="m 134.16846,135.59522 0.0412,-2.30715 c -0.0274,-0.42498 0.4272,-1.11744 1.01894,-1.13257 0.61102,-0.0157 0.99159,0.47976 0.99834,1.03456 l -0.0201,2.40069 z"
       id="path17-1" /><path
       style="fill:none;fill-rule:evenodd;stroke:#00ffda;stroke-width:0.492046;stroke-dasharray:none;stroke-opacity:1"
       d="m 133.70123,123.19602 -0.0208,-5.47261"
       id="path18" /><path
       style="fill:none;fill-rule:evenodd;stroke:#00ffda;stroke-width:0.412684;stroke-dasharray:none;stroke-opacity:1"
       d="m 133.68331,118.48403 c 0,0 1.13503,-0.25056 1.69123,-0.14636 0.56496,0.10585 0.98539,0.64297 1.54803,0.76051 0.63921,0.13354 1.95696,-0.0877 1.95696,-0.0877 l -0.0585,2.34002 c 0,0 -1.43928,0.31199 -2.1322,0.14625 -0.51807,-0.12391 -0.86978,-0.64353 -1.37278,-0.81901 -0.51618,-0.18007 -1.6253,-0.21798 -1.6253,-0.21798 z"
       id="path19" /></g></svg>
