<?xml version="1.0" encoding="UTF-8" standalone="no"?>
<!-- Created with Inkscape (http://www.inkscape.org/) -->

<svg
   width="39.913017mm"
   height="44.678711mm"
   viewBox="0 0 39.913017 44.678711"
   version="1.1"
   id="svg1"
   xml:space="preserve"
   xmlns="http://www.w3.org/2000/svg"
   xmlns:svg="http://www.w3.org/2000/svg"><defs
     id="defs1" /><g
     id="g20"
     transform="translate(-6.6332075,-113.21896)"><path
       style="fill:#000000;fill-opacity:1;fill-rule:evenodd;stroke:#00ffda;stroke-width:0.22;stroke-dasharray:none;stroke-opacity:1"
       d="M 7.3613829,113.32895 H 45.895042 c 0,0 1.259148,17.52061 -0.06816,26.12836 -0.139082,0.90196 -0.408195,1.79737 -0.817932,2.61284 -0.520977,1.03687 -1.321212,1.91019 -2.044827,2.81732 -0.652648,0.81817 -1.34787,1.60304 -2.067549,2.36292 -0.902274,0.95267 -1.825399,1.89021 -2.817319,2.74915 -1.392459,1.20578 -2.868755,2.31677 -4.385021,3.36261 -2.301052,1.58714 -7.134181,4.40774 -7.134181,4.40774 0,0 -4.909239,-2.93868 -7.225061,-4.61223 -1.662362,-1.20132 -3.250761,-2.5087 -4.771267,-3.88517 -1.496728,-1.35495 -2.981106,-2.74135 -4.27142,-4.29414 -0.7585763,-0.91289 -1.4921543,-1.86887 -2.0221083,-2.93092 -0.427727,-0.85718 -0.7553626,-1.78084 -0.9088128,-2.72644 -1.3878205,-8.55214 -1e-6,-25.99204 -1e-6,-25.99204 z"
       id="path1" /><path
       style="fill:#000000;fill-opacity:1;fill-rule:evenodd;stroke:#00ffda;stroke-width:0.22;stroke-dasharray:none;stroke-opacity:1"
       d="M 9.7476226,115.27215 H 43.554278 c 0,0 1.104694,15.373 -0.0598,22.92567 -0.12202,0.7914 -0.358115,1.57704 -0.717595,2.29257 -0.457063,0.90976 -1.159133,1.67604 -1.793984,2.47199 -0.572583,0.71788 -1.182522,1.40654 -1.813918,2.07328 -0.791588,0.83589 -1.601466,1.65852 -2.471713,2.41218 -1.221634,1.05797 -2.516832,2.03278 -3.847101,2.95043 -2.018768,1.39259 -6.259016,3.86746 -6.259016,3.86746 0,0 -4.307023,-2.57849 -6.338749,-4.04689 -1.458444,-1.05407 -2.851992,-2.20119 -4.185966,-3.40893 -1.31313,-1.18887 -2.615416,-2.40535 -3.747435,-3.76779 -0.665527,-0.801 -1.309114,-1.6398 -1.774053,-2.57166 -0.375263,-0.75212 -0.6627008,-1.56256 -0.7973265,-2.39225 -1.2175812,-7.50388 1.1e-6,-22.80606 1.1e-6,-22.80606 z"
       id="path1-4" /><path
       style="fill:#000000;fill-opacity:1;fill-rule:evenodd;stroke:#00ffda;stroke-width:0.42;stroke-dasharray:none;stroke-opacity:1"
       d="m 29.30382,128.46127 -5.141021,-0.0643 2.634774,-5.20528 z"
       id="path28" /><path
       style="fill:#000000;fill-opacity:1;fill-rule:evenodd;stroke:#00ffda;stroke-width:0.42;stroke-dasharray:none;stroke-opacity:1"
       d="m 26.733309,128.42912 0.06426,13.46306"
       id="path29" /><path
       style="fill:#000000;fill-opacity:1;fill-rule:evenodd;stroke:#00ffda;stroke-width:0.42;stroke-dasharray:none;stroke-opacity:1"
       d="m 26.765438,135.16065 2.859696,2.61872"
       id="path31" /><path
       style="fill:#000000;fill-opacity:1;fill-rule:evenodd;stroke:#00ffda;stroke-width:0.42;stroke-dasharray:none;stroke-opacity:1"
       d="m 26.797569,141.89218 2.570514,2.31346"
       id="path32" /><path
       style="fill:#000000;fill-opacity:1;fill-rule:evenodd;stroke:#00ffda;stroke-width:0.42;stroke-dasharray:none;stroke-opacity:1"
       d="m 26.765438,135.16065 -2.923953,2.49019"
       id="path33" /><path
       style="fill:#000000;fill-opacity:1;fill-rule:evenodd;stroke:#00ffda;stroke-width:0.42;stroke-dasharray:none;stroke-opacity:1"
       d="m 26.797569,141.89218 -2.763295,2.05641"
       id="path34" /><path
       style="fill:#000000;fill-opacity:1;fill-rule:evenodd;stroke:#00ffda;stroke-width:0.42;stroke-dasharray:none;stroke-opacity:1"
       d="m 24.034274,143.94859 -0.192789,-6.29775"
       id="path35" /><path
       style="fill:#000000;fill-opacity:1;fill-rule:evenodd;stroke:#00ffda;stroke-width:0.42;stroke-dasharray:none;stroke-opacity:1"
       d="m 29.625134,137.77937 -0.257051,6.42627"
       id="path36" /><path
       style="fill:#000000;fill-opacity:1;fill-rule:evenodd;stroke:#00ffda;stroke-width:0.42;stroke-dasharray:none;stroke-opacity:1"
       d="m 23.937879,140.79971 2.843735,-2.25004"
       id="path37" /><path
       style="fill:#000000;fill-opacity:1;fill-rule:evenodd;stroke:#00ffda;stroke-width:0.42;stroke-dasharray:none;stroke-opacity:1"
       d="m 29.496607,140.9925 -2.714993,-2.44283"
       id="path38" /></g></svg>
