<?xml version="1.0" encoding="UTF-8" standalone="no"?>
<!-- Created with Inkscape (http://www.inkscape.org/) -->

<svg
   width="3413.3301"
   height="1946.67"
   viewBox="0 0 3413.3299 1946.67"
   version="1.1"
   id="svg1"
   xml:space="preserve"
   xmlns="http://www.w3.org/2000/svg"
   xmlns:svg="http://www.w3.org/2000/svg"><defs
     id="defs1" /><path
     style="fill:none;fill-opacity:1;fill-rule:evenodd;stroke:none;stroke-width:3.09776;stroke-linecap:round;stroke-linejoin:round;stroke-opacity:1"
     d="m 1300.49,540.287 257.76,138.12 1.95,135.346 -45.92,-0.593 0.98,129.327 -177.24,92.343 -143.57,-86.71 -266.557,140.96 -268.786,-177.187 247.013,-118.6 -3.393,-53.08 z"
     id="tavern"><title
       id="title13">tavern</title></path><path
     style="fill:none;fill-opacity:1;fill-rule:evenodd;stroke:none;stroke-width:3.09776;stroke-linecap:round;stroke-linejoin:round;stroke-opacity:1"
     d="m 1419.6,567.367 328.54,182.52 151.11,-87.6 -2.73,-134.4 132.47,-73.755 -359.08,-164.637 -251.8,127.389 z"
     id="commandcenter"><title
       id="title11">commandcenter</title></path><path
     style="fill:none;fill-opacity:1;fill-rule:evenodd;stroke:none;stroke-width:3.09776;stroke-linecap:round;stroke-linejoin:round;stroke-opacity:1"
     d="M 1188.83,989.693 925.953,1127.1 770.62,1032.51 l -242.962,128.45 20.911,209.1 -109.532,60.74 143.387,107.53 142.389,-87.62 104.554,76.67 -16.927,-240.96 77.667,9.95 425.183,-236.98 z"
     id="gatekeeping"><title
       id="title14">gatekeeping</title></path><path
     style="fill:none;fill-opacity:1;fill-rule:evenodd;stroke:none;stroke-width:3.09776;stroke-linecap:round;stroke-linejoin:round;stroke-opacity:1"
     d="m 1218,1739.79 -72.89,-50.28 -271.13,-361 114.567,-58.74 67.253,43.45 94.23,121.58 141.56,-83.86 228.65,147.12 -128.29,134.87 z"
     id="intergration"><title
       id="title15">intergration</title></path><path
     style="fill:none;fill-opacity:1;fill-rule:evenodd;stroke:none;stroke-width:3.09776;stroke-linecap:round;stroke-linejoin:round;stroke-opacity:1"
     d="m 1738.79,1319.75 -390.34,-224.29 -2.43,-17.03 -321.13,177.59 57.78,40.14 71.78,107.96 135.62,-80.59 250.58,158.44 117.16,-71.36 z"
     id="questboard"><title
       id="title16">questboard</title></path><path
     style="fill:none;fill-opacity:1;fill-rule:evenodd;stroke:none;stroke-width:3.09776;stroke-linecap:round;stroke-linejoin:round;stroke-opacity:1"
     d="m 1766.23,1325.62 -83.7,100.04 -125.98,77.89 -141.38,145.36 -164.81,100.57 -0.42,46.5 834.84,7.24 107.79,-73.71 4.8,-142.34 z"
     id="trophyroom"><title
       id="title18">trophyroom</title></path><path
     style="fill:none;fill-opacity:1;fill-rule:evenodd;stroke:none;stroke-width:3.09776;stroke-linecap:round;stroke-linejoin:round;stroke-opacity:1"
     d="m 2244.55,951.107 -150.06,90.663 -80.06,112.67 -241.71,149.13 436.64,266.88 397.46,-272.46 3.64,-74.51 65.18,-37.31 z"
     id="vaults"><title
       id="title19">vaults</title></path><path
     style="fill:none;fill-opacity:1;fill-rule:evenodd;stroke:none;stroke-width:3.09776;stroke-linecap:round;stroke-linejoin:round;stroke-opacity:1"
     d="m 2258.89,944.08 257.31,136.71 258.77,-175.257 1.47,-211.113 -228.03,-103.679 -9.18,181.079 z"
     id="observatory"><title
       id="title12">observatory</title></path><path
     style="fill:none;fill-opacity:1;fill-rule:evenodd;stroke:none;stroke-width:3.09776;stroke-linecap:round;stroke-linejoin:round;stroke-opacity:1"
     d="m 1751.9,977.933 0.32,-191.9 -158.53,-82.433 -23.24,11.493 2.38,110.794 -27.67,0.173 2.25,120.52 -209.1,110.75 403.42,243.91 244.62,-148.09 -189.57,-104.99 0.22,-43.78 z"
     id="communityhub"><title
       id="title17">communityhub</title></path><path
     id="dao"
     style="fill:none;fill-opacity:1;fill-rule:evenodd;stroke:none;stroke-width:3.09776;stroke-linecap:round;stroke-linejoin:round;stroke-opacity:1"
     d="m 2078.2,1033.07 443.73,-270.257 2.53,-124.92 L 2130.61,444.38 1915.78,556.055 V 695.867 L 1770,776 v 189.253 l 51.15,28.987 2.56,39.21 179.43,103.77 z"><title
       id="title10">dao</title></path><path
     style="fill:none;fill-opacity:1;fill-rule:evenodd;stroke:none;stroke-width:3.1;stroke-dasharray:none;stroke-opacity:1"
     d="m 406.619,752.84 235.108,-171.689 366.023,-176.806 -3.8,-365.5497 352.59,-1.156 8.25,434.3177 -479.71,236.516 4.313,74.1 L 637.54,904.92 Z"
     id="armory"><title
       id="title2">armory</title></path><path
     style="fill:none;fill-opacity:1;fill-rule:evenodd;stroke:none;stroke-width:3.1;stroke-dasharray:none;stroke-opacity:1"
     d="m 2889.74,849.027 453.6,372.683 -99.05,158.48 -255.14,194.92 -286.84,-164.02 20.2,-230.65 -170.76,-98.19 z"
     id="foundry"><title
       id="title1">foundry</title></path><path
     style="fill:none;fill-rule:evenodd;stroke-width:3.1"
     d="M 0,0 H 3413.33 V 1946.67 H 0 Z"
     id="total"><title
       id="title3">total</title></path></svg>
